<?xml version="1.0" encoding="UTF-8" standalone="no"?>
<!-- Created with Inkscape (http://www.inkscape.org/) -->

<svg
   xmlns:dc="http://purl.org/dc/elements/1.1/"
   xmlns:cc="http://creativecommons.org/ns#"
   xmlns:rdf="http://www.w3.org/1999/02/22-rdf-syntax-ns#"
   xmlns:svg="http://www.w3.org/2000/svg"
   xmlns="http://www.w3.org/2000/svg"
   xmlns:sodipodi="http://sodipodi.sourceforge.net/DTD/sodipodi-0.dtd"
   xmlns:inkscape="http://www.inkscape.org/namespaces/inkscape"
   width="210mm"
   height="297mm"
   viewBox="0 0 744.09448819 1052.3622047"
   id="svg2"
   version="1.1"
   inkscape:version="0.91 r13725"
   sodipodi:docname="drawing.svg">
  <defs
     id="defs4" />
  <sodipodi:namedview
     id="base"
     pagecolor="#ffffff"
     bordercolor="#666666"
     borderopacity="1.0"
     inkscape:pageopacity="0.0"
     inkscape:pageshadow="2"
     inkscape:zoom="0.4851103"
     inkscape:cx="-176.01925"
     inkscape:cy="663.80733"
     inkscape:document-units="px"
     inkscape:current-layer="text3339"
     showgrid="false"
     inkscape:window-width="1920"
     inkscape:window-height="937"
     inkscape:window-x="0"
     inkscape:window-y="27"
     inkscape:window-maximized="1" />
  <metadata
     id="metadata7">
    <rdf:RDF>
      <cc:Work
         rdf:about="">
        <dc:format>image/svg+xml</dc:format>
        <dc:type
           rdf:resource="http://purl.org/dc/dcmitype/StillImage" />
        <dc:title />
      </cc:Work>
    </rdf:RDF>
  </metadata>
  <g
     inkscape:label="Capa 1"
     inkscape:groupmode="layer"
     id="layer1">
    <g
       style="font-style:normal;font-weight:normal;font-size:144.10160828px;line-height:125%;font-family:sans-serif;letter-spacing:0px;word-spacing:0px;fill:#000000;fill-opacity:1;stroke:none;stroke-width:1px;stroke-linecap:butt;stroke-linejoin:miter;stroke-opacity:1"
       id="text3339">
      <g
         id="g3353"
         transform="translate(-18.278636,8.6388974)">
        <path
           d="m 368.94738,465.97795 q 4.58009,0 10.56945,1.40925 5.98935,1.29182 8.69044,2.93596 l 0,22.78304 -9.16019,0 q -2.81852,-5.5196 -6.92886,-8.69043 -4.11034,-3.17084 -8.33812,-3.17084 -3.6406,0 -5.75448,3.05339 -1.99646,2.93596 -1.99646,8.33813 l 0,16.79368 18.90758,0 0,9.5125 -18.90758,0 0,36.7582 18.79014,4.5801 -4.69753,9.39506 -48.03229,0 0,-8.33812 10.45201,-9.16019 0,-33.23505 -11.62639,0 0,-9.5125 11.62639,0 0,-8.33813 q 0,-9.39506 5.75448,-17.49831 5.75448,-8.10324 14.21004,-12.80077 8.573,-4.81497 16.44137,-4.81497 z"
           style="font-style:normal;font-variant:normal;font-weight:900;font-stretch:normal;font-size:medium;line-height:125%;font-family:'Inknut Antiqua';-inkscape-font-specification:'Inknut Antiqua Heavy';letter-spacing:0px;word-spacing:0px;fill:#000000;fill-opacity:1;stroke:none;stroke-width:1px;stroke-linecap:butt;stroke-linejoin:miter;stroke-opacity:1"
           id="path3406"
           inkscape:connector-curvature="0" />
        <path
           d="m 434.57534,569.67599 -39.8116,0 0,-8.33812 10.45201,-9.16019 0,-59.4238 -10.45201,-6.81142 0,-8.33812 24.77949,-10.45201 9.16019,0 0,89.84032 10.56945,3.28828 -4.69753,9.39506 z"
           style="font-style:normal;font-variant:normal;font-weight:900;font-stretch:normal;font-size:medium;line-height:125%;font-family:'Inknut Antiqua';-inkscape-font-specification:'Inknut Antiqua Heavy';letter-spacing:0px;word-spacing:0px;fill:#000000;fill-opacity:1;stroke:none;stroke-width:1px;stroke-linecap:butt;stroke-linejoin:miter;stroke-opacity:1"
           id="path3408"
           inkscape:connector-curvature="0" />
        <path
           sodipodi:nodetypes="ccccccccccccccccccc"
           inkscape:connector-curvature="0"
           id="path3359-3-7"
           style="font-style:normal;font-variant:normal;font-weight:900;font-stretch:normal;font-size:144.10160828px;line-height:125%;font-family:'Inknut Antiqua';-inkscape-font-specification:'Inknut Antiqua Heavy';letter-spacing:0px;word-spacing:0px;fill:#000000;fill-opacity:1;stroke:none;stroke-width:1px;stroke-linecap:butt;stroke-linejoin:miter;stroke-opacity:1"
           d="m 245.94359,568.65163 -53.47289,0 0,-9.17047 15.37022,-8.00802 -6.58724,-16.27436 -37.71518,0 -5.29563,13.17448 18.08263,9.94544 -5.16647,10.33293 -43.13996,0 0,-9.17047 15.11191,-11.23706 34.26502,-84.16604 24.37433,0.5985 z m -63.80582,-80.3385 -13.82029,34.6153 27.8989,0 z" />
        <path
           sodipodi:nodetypes="cccccccccccccc"
           inkscape:connector-curvature="0"
           id="path3361-6-0"
           style="font-style:normal;font-variant:normal;font-weight:900;font-stretch:normal;font-size:144.10160828px;line-height:125%;font-family:'Inknut Antiqua';-inkscape-font-specification:'Inknut Antiqua Heavy';letter-spacing:0px;word-spacing:0px;fill:#000000;fill-opacity:1;stroke:none;stroke-width:1px;stroke-linecap:butt;stroke-linejoin:miter;stroke-opacity:1"
           d="m 316.34592,485.74551 -33.9384,83.5128 -24.70095,0.0548 -44.17326,-103.97507 53.47289,0 0,9.17047 -15.37023,8.00802 25.57399,63.16002 24.02406,-60.06014 -18.08263,-9.94544 5.16647,-10.33293 43.13996,0 0,9.17047 z" />
        <path
           inkscape:connector-curvature="0"
           id="path3365-5-3"
           style="font-style:normal;font-variant:normal;font-weight:900;font-stretch:normal;font-size:144.10160828px;line-height:125%;font-family:'Inknut Antiqua';-inkscape-font-specification:'Inknut Antiqua Heavy';letter-spacing:0px;word-spacing:0px;fill:#000000;fill-opacity:1;stroke:none;stroke-width:1px;stroke-linecap:butt;stroke-linejoin:miter;stroke-opacity:1"
           d="m 484.94045,503.97856 q 9.28626,0 16.5486,4.16692 7.38139,4.04785 11.42927,11.31019 4.1669,7.14328 4.1669,15.95334 0,9.52436 -6.3099,17.73914 -6.3099,8.21478 -15.83428,13.09602 -9.52437,4.76218 -18.45346,4.76218 -9.28628,0 -16.66767,-4.04787 -7.26234,-4.16689 -11.42924,-11.31018 -4.04787,-7.26234 -4.04787,-16.07239 0,-9.52437 6.30991,-17.73915 6.30989,-8.21477 15.83426,-12.97696 9.52438,-4.88124 18.45348,-4.88124 z m -6.90517,15.95333 q -3.80975,0 -5.95274,3.57163 -2.02393,3.4526 -2.02393,10.35776 0,9.28628 3.45259,15.23901 3.57164,5.95274 9.88155,5.95274 3.80975,0 5.83367,-3.57165 2.14299,-3.57164 2.14299,-10.47681 0,-9.28626 -3.57165,-15.11994 -3.45258,-5.95274 -9.76248,-5.95274 z" />
        <path
           inkscape:connector-curvature="0"
           id="path3367-3-6"
           style="font-style:normal;font-variant:normal;font-weight:900;font-stretch:normal;font-size:144.10160828px;line-height:125%;font-family:'Inknut Antiqua';-inkscape-font-specification:'Inknut Antiqua Heavy';letter-spacing:0px;word-spacing:0px;fill:#000000;fill-opacity:1;stroke:none;stroke-width:1px;stroke-linecap:butt;stroke-linejoin:miter;stroke-opacity:1"
           d="m 559.5803,553.38625 q 0,-1.66675 -2.73826,-3.57163 -2.6192,-2.02393 -8.45288,-5.47652 -9.40532,-5.47651 -14.64373,-9.88154 -5.23841,-4.40502 -5.23841,-9.76249 0,-4.28597 4.40503,-9.16721 4.40503,-4.88124 10.71492,-8.21477 6.42896,-3.33353 11.78641,-3.33353 6.54801,0 15.239,1.42866 8.691,1.3096 12.61981,2.97636 l 0,20.71551 -9.28627,0 q -2.85731,-5.00029 -7.02422,-7.8576 -4.16692,-2.97637 -8.45289,-2.97637 -1.66677,0 -2.6192,0.95244 -0.83339,0.95244 -0.83339,2.3811 0,1.90486 2.73827,4.04786 2.8573,2.02392 8.9291,5.59557 9.1672,5.2384 14.28656,9.52437 5.11935,4.28597 5.11935,9.52438 0,4.40502 -4.52406,9.28626 -4.5241,4.76218 -11.0721,8.09573 -6.548,3.33352 -12.02453,3.33352 -6.90517,0 -16.42955,-1.3096 -9.52437,-1.42866 -13.69129,-3.09541 l 0,-21.90608 9.28627,0 q 3.33354,5.59558 8.21476,8.81004 4.88125,3.2145 9.64344,3.2145 1.78583,0 2.85732,-0.95245 1.19054,-0.95244 1.19054,-2.3811 z" />
        <path
           inkscape:connector-curvature="0"
           id="path3369-5-0"
           style="font-style:normal;font-variant:normal;font-weight:900;font-stretch:normal;font-size:144.10160828px;line-height:125%;font-family:'Inknut Antiqua';-inkscape-font-specification:'Inknut Antiqua Heavy';letter-spacing:0px;word-spacing:0px;fill:#000000;fill-opacity:1;stroke:none;stroke-width:1px;stroke-linecap:butt;stroke-linejoin:miter;stroke-opacity:1"
           d="m 626.08348,553.38625 q 0,-1.66675 -2.73826,-3.57163 -2.61919,-2.02393 -8.45287,-5.47652 -9.40532,-5.47651 -14.64374,-9.88154 -5.23841,-4.40502 -5.23841,-9.76249 0,-4.28597 4.40505,-9.16721 4.40501,-4.88124 10.71491,-8.21477 6.42895,-3.33353 11.78642,-3.33353 6.548,0 15.239,1.42866 8.69099,1.3096 12.6198,2.97636 l 0,20.71551 -9.28626,0 q -2.85732,-5.00029 -7.02424,-7.8576 -4.16691,-2.97637 -8.45288,-2.97637 -1.66678,0 -2.6192,0.95244 -0.83338,0.95244 -0.83338,2.3811 0,1.90486 2.73825,4.04786 2.85731,2.02392 8.92911,5.59557 9.1672,5.2384 14.28655,9.52437 5.11936,4.28597 5.11936,9.52438 0,4.40502 -4.52408,9.28626 -4.52408,4.76218 -11.07209,8.09573 -6.548,3.33352 -12.02452,3.33352 -6.90517,0 -16.42955,-1.3096 -9.52438,-1.42866 -13.69129,-3.09541 l 0,-21.90608 9.28627,0 q 3.33353,5.59558 8.21477,8.81004 4.88124,3.2145 9.64342,3.2145 1.78584,0 2.85732,-0.95245 1.19054,-0.95244 1.19054,-2.3811 z" />
      </g>
    </g>
  </g>
</svg>
